<mxfile host="app.diagrams.net" modified="2021-06-02T08:48:52.012Z" agent="5.0 (Windows NT 6.1; Win64; x64) AppleWebKit/537.36 (KHTML, like Gecko) Chrome/87.0.4280.88 Safari/537.36" etag="riibzIk2gi3YhAz4TmZV" version="14.7.3" type="github">
  <diagram id="3XBc0p0WV3W5VuYY8xEw" name="Page-1">
    <mxGraphModel dx="1021" dy="529" grid="1" gridSize="10" guides="1" tooltips="1" connect="1" arrows="1" fold="1" page="1" pageScale="1" pageWidth="827" pageHeight="1169" math="0" shadow="0">
      <root>
        <mxCell id="0" />
        <mxCell id="1" parent="0" />
        <mxCell id="Qyz6T62Rhh_Mp7_hvaxB-6" style="edgeStyle=orthogonalEdgeStyle;rounded=0;orthogonalLoop=1;jettySize=auto;html=1;exitX=1;exitY=0.5;exitDx=0;exitDy=0;" parent="1" source="Qyz6T62Rhh_Mp7_hvaxB-1" target="Qyz6T62Rhh_Mp7_hvaxB-2" edge="1">
          <mxGeometry relative="1" as="geometry" />
        </mxCell>
        <mxCell id="Qyz6T62Rhh_Mp7_hvaxB-1" value="&lt;font style=&quot;font-size: 18px&quot;&gt;在线监测&lt;br&gt;流量数据&lt;/font&gt;" style="rounded=1;whiteSpace=wrap;html=1;fillColor=#dae8fc;strokeColor=#6c8ebf;" parent="1" vertex="1">
          <mxGeometry x="160" y="140" width="120" height="60" as="geometry" />
        </mxCell>
        <mxCell id="Qyz6T62Rhh_Mp7_hvaxB-7" style="edgeStyle=orthogonalEdgeStyle;rounded=0;orthogonalLoop=1;jettySize=auto;html=1;exitX=1;exitY=0.5;exitDx=0;exitDy=0;" parent="1" source="Qyz6T62Rhh_Mp7_hvaxB-2" target="Qyz6T62Rhh_Mp7_hvaxB-3" edge="1">
          <mxGeometry relative="1" as="geometry" />
        </mxCell>
        <mxCell id="Qyz6T62Rhh_Mp7_hvaxB-2" value="&lt;font style=&quot;font-size: 18px&quot;&gt;流量平衡&lt;br&gt;分析&lt;/font&gt;" style="shape=process;whiteSpace=wrap;html=1;backgroundOutline=1;fillColor=#fff2cc;strokeColor=#d6b656;" parent="1" vertex="1">
          <mxGeometry x="360" y="140" width="120" height="60" as="geometry" />
        </mxCell>
        <mxCell id="4nj9BuCxJOS_oLNpgcTW-2" style="edgeStyle=orthogonalEdgeStyle;rounded=0;orthogonalLoop=1;jettySize=auto;html=1;exitX=1;exitY=0.5;exitDx=0;exitDy=0;" edge="1" parent="1" source="Qyz6T62Rhh_Mp7_hvaxB-3" target="4nj9BuCxJOS_oLNpgcTW-1">
          <mxGeometry relative="1" as="geometry" />
        </mxCell>
        <mxCell id="4nj9BuCxJOS_oLNpgcTW-43" style="edgeStyle=orthogonalEdgeStyle;rounded=0;orthogonalLoop=1;jettySize=auto;html=1;exitX=0.5;exitY=1;exitDx=0;exitDy=0;" edge="1" parent="1" source="Qyz6T62Rhh_Mp7_hvaxB-3" target="4nj9BuCxJOS_oLNpgcTW-42">
          <mxGeometry relative="1" as="geometry" />
        </mxCell>
        <mxCell id="Qyz6T62Rhh_Mp7_hvaxB-3" value="&lt;font style=&quot;font-size: 18px&quot;&gt;流量异常&lt;/font&gt;" style="rhombus;whiteSpace=wrap;html=1;fillColor=#ffe6cc;strokeColor=#d79b00;" parent="1" vertex="1">
          <mxGeometry x="570" y="120" width="140" height="100" as="geometry" />
        </mxCell>
        <mxCell id="Qyz6T62Rhh_Mp7_hvaxB-12" style="edgeStyle=orthogonalEdgeStyle;rounded=0;orthogonalLoop=1;jettySize=auto;html=1;exitX=0;exitY=0.5;exitDx=0;exitDy=0;" parent="1" source="Qyz6T62Rhh_Mp7_hvaxB-5" target="Qyz6T62Rhh_Mp7_hvaxB-11" edge="1">
          <mxGeometry relative="1" as="geometry" />
        </mxCell>
        <mxCell id="Qyz6T62Rhh_Mp7_hvaxB-5" value="&lt;span style=&quot;font-size: 18px&quot;&gt;精准排查&lt;/span&gt;" style="shape=process;whiteSpace=wrap;html=1;backgroundOutline=1;fillColor=#fff2cc;strokeColor=#d6b656;" parent="1" vertex="1">
          <mxGeometry x="360" y="445" width="120" height="60" as="geometry" />
        </mxCell>
        <mxCell id="Qyz6T62Rhh_Mp7_hvaxB-10" value="&lt;font style=&quot;font-size: 18px&quot;&gt;是&lt;/font&gt;" style="text;html=1;strokeColor=none;fillColor=none;align=center;verticalAlign=middle;whiteSpace=wrap;rounded=0;" parent="1" vertex="1">
          <mxGeometry x="590" y="230" width="50" height="40" as="geometry" />
        </mxCell>
        <mxCell id="Qyz6T62Rhh_Mp7_hvaxB-11" value="&lt;font style=&quot;font-size: 18px&quot;&gt;输出结论&lt;/font&gt;" style="rounded=1;whiteSpace=wrap;html=1;fillColor=#dae8fc;strokeColor=#6c8ebf;" parent="1" vertex="1">
          <mxGeometry x="160" y="445" width="120" height="60" as="geometry" />
        </mxCell>
        <mxCell id="4nj9BuCxJOS_oLNpgcTW-1" value="&lt;font style=&quot;font-size: 18px&quot;&gt;特征&lt;br&gt;污染物分析&lt;/font&gt;" style="shape=process;whiteSpace=wrap;html=1;backgroundOutline=1;fillColor=#fff2cc;strokeColor=#d6b656;" vertex="1" parent="1">
          <mxGeometry x="810" y="140" width="120" height="60" as="geometry" />
        </mxCell>
        <mxCell id="4nj9BuCxJOS_oLNpgcTW-3" value="&lt;font style=&quot;font-size: 18px&quot;&gt;否&lt;/font&gt;" style="text;html=1;strokeColor=none;fillColor=none;align=center;verticalAlign=middle;whiteSpace=wrap;rounded=0;" vertex="1" parent="1">
          <mxGeometry x="730" y="130" width="50" height="40" as="geometry" />
        </mxCell>
        <mxCell id="4nj9BuCxJOS_oLNpgcTW-5" style="edgeStyle=orthogonalEdgeStyle;rounded=0;orthogonalLoop=1;jettySize=auto;html=1;exitX=0.5;exitY=1;exitDx=0;exitDy=0;" edge="1" parent="1" source="4nj9BuCxJOS_oLNpgcTW-4" target="4nj9BuCxJOS_oLNpgcTW-1">
          <mxGeometry relative="1" as="geometry" />
        </mxCell>
        <mxCell id="4nj9BuCxJOS_oLNpgcTW-4" value="&lt;font style=&quot;font-size: 18px&quot;&gt;在线采集&lt;br&gt;污水水样数据&lt;/font&gt;" style="rounded=1;whiteSpace=wrap;html=1;fillColor=#dae8fc;strokeColor=#6c8ebf;" vertex="1" parent="1">
          <mxGeometry x="810" y="20" width="120" height="60" as="geometry" />
        </mxCell>
        <mxCell id="4nj9BuCxJOS_oLNpgcTW-47" style="edgeStyle=orthogonalEdgeStyle;rounded=0;orthogonalLoop=1;jettySize=auto;html=1;exitX=0;exitY=0.5;exitDx=0;exitDy=0;entryX=1;entryY=0.5;entryDx=0;entryDy=0;" edge="1" parent="1" source="4nj9BuCxJOS_oLNpgcTW-7" target="Qyz6T62Rhh_Mp7_hvaxB-5">
          <mxGeometry relative="1" as="geometry" />
        </mxCell>
        <mxCell id="4nj9BuCxJOS_oLNpgcTW-7" value="" style="rounded=0;whiteSpace=wrap;html=1;fillColor=#fff2cc;strokeColor=#d6b656;" vertex="1" parent="1">
          <mxGeometry x="560" y="400" width="160" height="150" as="geometry" />
        </mxCell>
        <mxCell id="4nj9BuCxJOS_oLNpgcTW-8" value="&lt;span style=&quot;font-size: 18px&quot;&gt;管道机器人&lt;/span&gt;" style="rounded=1;whiteSpace=wrap;html=1;fillColor=#dae8fc;strokeColor=#6c8ebf;" vertex="1" parent="1">
          <mxGeometry x="580" y="410" width="120" height="60" as="geometry" />
        </mxCell>
        <mxCell id="4nj9BuCxJOS_oLNpgcTW-9" value="&lt;span style=&quot;font-size: 18px&quot;&gt;声呐探头&lt;/span&gt;" style="rounded=1;whiteSpace=wrap;html=1;fillColor=#dae8fc;strokeColor=#6c8ebf;" vertex="1" parent="1">
          <mxGeometry x="580" y="480" width="120" height="60" as="geometry" />
        </mxCell>
        <mxCell id="4nj9BuCxJOS_oLNpgcTW-10" style="edgeStyle=orthogonalEdgeStyle;rounded=0;orthogonalLoop=1;jettySize=auto;html=1;exitX=1;exitY=0.5;exitDx=0;exitDy=0;" edge="1" parent="1" source="4nj9BuCxJOS_oLNpgcTW-11" target="4nj9BuCxJOS_oLNpgcTW-14">
          <mxGeometry relative="1" as="geometry" />
        </mxCell>
        <mxCell id="4nj9BuCxJOS_oLNpgcTW-11" value="&lt;font style=&quot;font-size: 18px&quot;&gt;污水水样&lt;/font&gt;" style="rounded=1;whiteSpace=wrap;html=1;fillColor=#dae8fc;strokeColor=#6c8ebf;" vertex="1" parent="1">
          <mxGeometry x="140" y="1034" width="120" height="60" as="geometry" />
        </mxCell>
        <mxCell id="4nj9BuCxJOS_oLNpgcTW-12" style="edgeStyle=orthogonalEdgeStyle;rounded=0;orthogonalLoop=1;jettySize=auto;html=1;exitX=1;exitY=0.5;exitDx=0;exitDy=0;" edge="1" parent="1" source="4nj9BuCxJOS_oLNpgcTW-14" target="4nj9BuCxJOS_oLNpgcTW-17">
          <mxGeometry relative="1" as="geometry" />
        </mxCell>
        <mxCell id="4nj9BuCxJOS_oLNpgcTW-13" style="edgeStyle=orthogonalEdgeStyle;rounded=0;orthogonalLoop=1;jettySize=auto;html=1;exitX=0.5;exitY=0;exitDx=0;exitDy=0;entryX=0.5;entryY=1;entryDx=0;entryDy=0;" edge="1" parent="1" source="4nj9BuCxJOS_oLNpgcTW-14" target="4nj9BuCxJOS_oLNpgcTW-22">
          <mxGeometry relative="1" as="geometry" />
        </mxCell>
        <mxCell id="4nj9BuCxJOS_oLNpgcTW-14" value="&lt;font style=&quot;font-size: 18px&quot;&gt;大肠杆菌&lt;br&gt;&amp;nbsp;&amp;gt; 120000 MPN/L 或&lt;br&gt;肠球菌&lt;br&gt;&amp;nbsp;&amp;gt; 50000 MPN/L&lt;/font&gt;" style="rhombus;whiteSpace=wrap;html=1;fillColor=#ffe6cc;strokeColor=#d79b00;" vertex="1" parent="1">
          <mxGeometry x="300" y="964" width="220" height="200" as="geometry" />
        </mxCell>
        <mxCell id="4nj9BuCxJOS_oLNpgcTW-15" style="edgeStyle=orthogonalEdgeStyle;rounded=0;orthogonalLoop=1;jettySize=auto;html=1;exitX=0.5;exitY=0;exitDx=0;exitDy=0;entryX=0.5;entryY=1;entryDx=0;entryDy=0;" edge="1" parent="1" source="4nj9BuCxJOS_oLNpgcTW-17" target="4nj9BuCxJOS_oLNpgcTW-20">
          <mxGeometry relative="1" as="geometry" />
        </mxCell>
        <mxCell id="4nj9BuCxJOS_oLNpgcTW-16" style="edgeStyle=orthogonalEdgeStyle;rounded=0;orthogonalLoop=1;jettySize=auto;html=1;exitX=1;exitY=0.5;exitDx=0;exitDy=0;entryX=0;entryY=0.5;entryDx=0;entryDy=0;" edge="1" parent="1" source="4nj9BuCxJOS_oLNpgcTW-17" target="4nj9BuCxJOS_oLNpgcTW-31">
          <mxGeometry relative="1" as="geometry" />
        </mxCell>
        <mxCell id="4nj9BuCxJOS_oLNpgcTW-17" value="&lt;font style=&quot;font-size: 18px&quot;&gt;表面活性剂&lt;br&gt;&amp;nbsp;&amp;gt; 0.25 mg/L&lt;/font&gt;" style="rhombus;whiteSpace=wrap;html=1;fillColor=#ffe6cc;strokeColor=#d79b00;" vertex="1" parent="1">
          <mxGeometry x="570" y="999" width="160" height="130" as="geometry" />
        </mxCell>
        <mxCell id="4nj9BuCxJOS_oLNpgcTW-18" style="edgeStyle=orthogonalEdgeStyle;rounded=0;orthogonalLoop=1;jettySize=auto;html=1;exitX=0;exitY=0.5;exitDx=0;exitDy=0;entryX=0.75;entryY=1;entryDx=0;entryDy=0;" edge="1" parent="1" source="4nj9BuCxJOS_oLNpgcTW-20" target="4nj9BuCxJOS_oLNpgcTW-22">
          <mxGeometry relative="1" as="geometry" />
        </mxCell>
        <mxCell id="4nj9BuCxJOS_oLNpgcTW-19" style="edgeStyle=orthogonalEdgeStyle;rounded=0;orthogonalLoop=1;jettySize=auto;html=1;exitX=0.5;exitY=0;exitDx=0;exitDy=0;" edge="1" parent="1" source="4nj9BuCxJOS_oLNpgcTW-20" target="4nj9BuCxJOS_oLNpgcTW-21">
          <mxGeometry relative="1" as="geometry" />
        </mxCell>
        <mxCell id="4nj9BuCxJOS_oLNpgcTW-20" value="&lt;span style=&quot;font-size: 18px&quot;&gt;表面活性剂&lt;br&gt;/ 氨氮&lt;/span&gt;&lt;span style=&quot;font-size: 18px&quot;&gt;&amp;nbsp;&amp;lt; 0.2 且&lt;br&gt;氨氮&amp;nbsp;&lt;/span&gt;&lt;span style=&quot;font-size: 18px&quot;&gt;/ 钾 &amp;gt;1.0&lt;br&gt;&lt;/span&gt;" style="rhombus;whiteSpace=wrap;html=1;fillColor=#ffe6cc;strokeColor=#d79b00;" vertex="1" parent="1">
          <mxGeometry x="555" y="814" width="190" height="140" as="geometry" />
        </mxCell>
        <mxCell id="4nj9BuCxJOS_oLNpgcTW-21" value="&lt;font style=&quot;font-size: 18px&quot;&gt;洗涤污水&lt;/font&gt;" style="rounded=1;whiteSpace=wrap;html=1;fillColor=#dae8fc;strokeColor=#6c8ebf;" vertex="1" parent="1">
          <mxGeometry x="590" y="710" width="120" height="60" as="geometry" />
        </mxCell>
        <mxCell id="4nj9BuCxJOS_oLNpgcTW-22" value="&lt;font style=&quot;font-size: 18px&quot;&gt;生活污水&lt;/font&gt;" style="rounded=1;whiteSpace=wrap;html=1;fillColor=#dae8fc;strokeColor=#6c8ebf;" vertex="1" parent="1">
          <mxGeometry x="350" y="710" width="120" height="60" as="geometry" />
        </mxCell>
        <mxCell id="4nj9BuCxJOS_oLNpgcTW-23" value="&lt;font style=&quot;font-size: 18px&quot;&gt;是&lt;/font&gt;" style="text;html=1;strokeColor=none;fillColor=none;align=center;verticalAlign=middle;whiteSpace=wrap;rounded=0;" vertex="1" parent="1">
          <mxGeometry x="360" y="884" width="50" height="30" as="geometry" />
        </mxCell>
        <mxCell id="4nj9BuCxJOS_oLNpgcTW-24" value="&lt;font style=&quot;font-size: 18px&quot;&gt;是&lt;/font&gt;" style="text;html=1;strokeColor=none;fillColor=none;align=center;verticalAlign=middle;whiteSpace=wrap;rounded=0;" vertex="1" parent="1">
          <mxGeometry x="649" y="962" width="50" height="30" as="geometry" />
        </mxCell>
        <mxCell id="4nj9BuCxJOS_oLNpgcTW-25" value="&lt;font style=&quot;font-size: 18px&quot;&gt;是&lt;/font&gt;" style="text;html=1;strokeColor=none;fillColor=none;align=center;verticalAlign=middle;whiteSpace=wrap;rounded=0;" vertex="1" parent="1">
          <mxGeometry x="470" y="844" width="50" height="30" as="geometry" />
        </mxCell>
        <mxCell id="4nj9BuCxJOS_oLNpgcTW-26" value="&lt;font style=&quot;font-size: 18px&quot;&gt;否&lt;/font&gt;" style="text;html=1;strokeColor=none;fillColor=none;align=center;verticalAlign=middle;whiteSpace=wrap;rounded=0;" vertex="1" parent="1">
          <mxGeometry x="920" y="1035" width="50" height="30" as="geometry" />
        </mxCell>
        <mxCell id="4nj9BuCxJOS_oLNpgcTW-27" value="&lt;font style=&quot;font-size: 18px&quot;&gt;否&lt;/font&gt;" style="text;html=1;strokeColor=none;fillColor=none;align=center;verticalAlign=middle;whiteSpace=wrap;rounded=0;" vertex="1" parent="1">
          <mxGeometry x="649" y="780" width="50" height="30" as="geometry" />
        </mxCell>
        <mxCell id="4nj9BuCxJOS_oLNpgcTW-28" value="&lt;font style=&quot;font-size: 18px&quot;&gt;否&lt;/font&gt;" style="text;html=1;strokeColor=none;fillColor=none;align=center;verticalAlign=middle;whiteSpace=wrap;rounded=0;" vertex="1" parent="1">
          <mxGeometry x="515" y="1035" width="50" height="30" as="geometry" />
        </mxCell>
        <mxCell id="4nj9BuCxJOS_oLNpgcTW-29" style="edgeStyle=orthogonalEdgeStyle;rounded=0;orthogonalLoop=1;jettySize=auto;html=1;exitX=1;exitY=0.5;exitDx=0;exitDy=0;" edge="1" parent="1" source="4nj9BuCxJOS_oLNpgcTW-31" target="4nj9BuCxJOS_oLNpgcTW-39">
          <mxGeometry relative="1" as="geometry" />
        </mxCell>
        <mxCell id="4nj9BuCxJOS_oLNpgcTW-30" style="edgeStyle=orthogonalEdgeStyle;rounded=0;orthogonalLoop=1;jettySize=auto;html=1;exitX=0.5;exitY=0;exitDx=0;exitDy=0;entryX=0.5;entryY=1;entryDx=0;entryDy=0;" edge="1" parent="1" source="4nj9BuCxJOS_oLNpgcTW-31" target="4nj9BuCxJOS_oLNpgcTW-33">
          <mxGeometry relative="1" as="geometry" />
        </mxCell>
        <mxCell id="4nj9BuCxJOS_oLNpgcTW-31" value="&lt;span style=&quot;font-size: 18px&quot;&gt;高浓度氟化物&lt;/span&gt;" style="rhombus;whiteSpace=wrap;html=1;fillColor=#ffe6cc;strokeColor=#d79b00;" vertex="1" parent="1">
          <mxGeometry x="770" y="999" width="160" height="130" as="geometry" />
        </mxCell>
        <mxCell id="4nj9BuCxJOS_oLNpgcTW-32" value="&lt;font style=&quot;font-size: 18px&quot;&gt;否&lt;/font&gt;" style="text;html=1;strokeColor=none;fillColor=none;align=center;verticalAlign=middle;whiteSpace=wrap;rounded=0;" vertex="1" parent="1">
          <mxGeometry x="719" y="1034" width="50" height="30" as="geometry" />
        </mxCell>
        <mxCell id="4nj9BuCxJOS_oLNpgcTW-33" value="&lt;font style=&quot;font-size: 18px&quot;&gt;工业污水&lt;/font&gt;" style="rounded=1;whiteSpace=wrap;html=1;fillColor=#dae8fc;strokeColor=#6c8ebf;" vertex="1" parent="1">
          <mxGeometry x="790" y="894" width="120" height="60" as="geometry" />
        </mxCell>
        <mxCell id="4nj9BuCxJOS_oLNpgcTW-34" value="&lt;font style=&quot;font-size: 18px&quot;&gt;是&lt;/font&gt;" style="text;html=1;strokeColor=none;fillColor=none;align=center;verticalAlign=middle;whiteSpace=wrap;rounded=0;" vertex="1" parent="1">
          <mxGeometry x="850" y="962" width="50" height="30" as="geometry" />
        </mxCell>
        <mxCell id="4nj9BuCxJOS_oLNpgcTW-35" value="&lt;font style=&quot;font-size: 18px&quot;&gt;自来水&lt;/font&gt;" style="rounded=1;whiteSpace=wrap;html=1;fillColor=#dae8fc;strokeColor=#6c8ebf;" vertex="1" parent="1">
          <mxGeometry x="1180" y="1034" width="120" height="60" as="geometry" />
        </mxCell>
        <mxCell id="4nj9BuCxJOS_oLNpgcTW-36" value="&lt;font style=&quot;font-size: 18px&quot;&gt;否&lt;/font&gt;" style="text;html=1;strokeColor=none;fillColor=none;align=center;verticalAlign=middle;whiteSpace=wrap;rounded=0;" vertex="1" parent="1">
          <mxGeometry x="1130" y="1035" width="50" height="30" as="geometry" />
        </mxCell>
        <mxCell id="4nj9BuCxJOS_oLNpgcTW-37" style="edgeStyle=orthogonalEdgeStyle;rounded=0;orthogonalLoop=1;jettySize=auto;html=1;exitX=1;exitY=0.5;exitDx=0;exitDy=0;entryX=0;entryY=0.5;entryDx=0;entryDy=0;" edge="1" parent="1" source="4nj9BuCxJOS_oLNpgcTW-39" target="4nj9BuCxJOS_oLNpgcTW-35">
          <mxGeometry relative="1" as="geometry" />
        </mxCell>
        <mxCell id="4nj9BuCxJOS_oLNpgcTW-38" style="edgeStyle=orthogonalEdgeStyle;rounded=0;orthogonalLoop=1;jettySize=auto;html=1;exitX=0.5;exitY=0;exitDx=0;exitDy=0;entryX=0.5;entryY=1;entryDx=0;entryDy=0;" edge="1" parent="1" source="4nj9BuCxJOS_oLNpgcTW-39" target="4nj9BuCxJOS_oLNpgcTW-40">
          <mxGeometry relative="1" as="geometry" />
        </mxCell>
        <mxCell id="4nj9BuCxJOS_oLNpgcTW-39" value="&lt;span style=&quot;font-size: 18px&quot;&gt;高钙镁离子浓度&lt;/span&gt;" style="rhombus;whiteSpace=wrap;html=1;fillColor=#ffe6cc;strokeColor=#d79b00;" vertex="1" parent="1">
          <mxGeometry x="970" y="999" width="160" height="130" as="geometry" />
        </mxCell>
        <mxCell id="4nj9BuCxJOS_oLNpgcTW-40" value="&lt;font style=&quot;font-size: 18px&quot;&gt;地下水&lt;/font&gt;" style="rounded=1;whiteSpace=wrap;html=1;fillColor=#dae8fc;strokeColor=#6c8ebf;" vertex="1" parent="1">
          <mxGeometry x="990" y="894" width="120" height="60" as="geometry" />
        </mxCell>
        <mxCell id="4nj9BuCxJOS_oLNpgcTW-41" value="&lt;font style=&quot;font-size: 18px&quot;&gt;是&lt;/font&gt;" style="text;html=1;strokeColor=none;fillColor=none;align=center;verticalAlign=middle;whiteSpace=wrap;rounded=0;" vertex="1" parent="1">
          <mxGeometry x="1070" y="964" width="50" height="30" as="geometry" />
        </mxCell>
        <mxCell id="4nj9BuCxJOS_oLNpgcTW-45" style="edgeStyle=orthogonalEdgeStyle;rounded=0;orthogonalLoop=1;jettySize=auto;html=1;exitX=0.5;exitY=1;exitDx=0;exitDy=0;entryX=0.5;entryY=0;entryDx=0;entryDy=0;" edge="1" parent="1" source="4nj9BuCxJOS_oLNpgcTW-42" target="4nj9BuCxJOS_oLNpgcTW-7">
          <mxGeometry relative="1" as="geometry" />
        </mxCell>
        <mxCell id="4nj9BuCxJOS_oLNpgcTW-42" value="&lt;font style=&quot;font-size: 18px&quot;&gt;确定流量计的监测点位&lt;/font&gt;" style="shape=process;whiteSpace=wrap;html=1;backgroundOutline=1;fillColor=#fff2cc;strokeColor=#d6b656;" vertex="1" parent="1">
          <mxGeometry x="579" y="290" width="120" height="60" as="geometry" />
        </mxCell>
      </root>
    </mxGraphModel>
  </diagram>
</mxfile>
